<svg xmlns="http://www.w3.org/2000/svg" width="202" height="107.038" viewBox="0 0 202 107.038">
  <g id="arc" transform="translate(0 0)">
    <path id="Tracé_6710" data-name="Tracé 6710" d="M623.577,255.567a6.034,6.034,0,0,1-6.036-6.036,88.812,88.812,0,0,0-4.769-28.809,6.036,6.036,0,1,1,11.421-3.909,100.851,100.851,0,0,1,5.419,32.717,6.034,6.034,0,0,1-6.036,6.036Z" transform="translate(-427.613 -148.529)" fill="#00cb06"/>
    <path id="Tracé_6711" data-name="Tracé 6711" d="M558.388,124.959a6.027,6.027,0,0,1-5.309-3.157,89.093,89.093,0,0,0-15.793-20.969,6.036,6.036,0,0,1,8.473-8.6,101.178,101.178,0,0,1,17.925,23.805,6.039,6.039,0,0,1-5.3,8.918Z" transform="translate(-373.879 -63.187)" fill="#fcef21"/>
    <path id="Tracé_6712" data-name="Tracé 6712" d="M373.348,27.991A5.993,5.993,0,0,1,370,26.974a88.5,88.5,0,0,0-49.3-14.9,6.036,6.036,0,0,1,0-12.072,100.543,100.543,0,0,1,56,16.934,6.037,6.037,0,0,1-3.356,11.057Z" transform="translate(-219.704 0)" fill="#f09000"/>
    <path id="Tracé_6713" data-name="Tracé 6713" d="M6.036,112.4A6.034,6.034,0,0,1,0,106.363,101.016,101.016,0,0,1,78.75,7.825,6.035,6.035,0,1,1,81.391,19.6a88.953,88.953,0,0,0-69.319,86.76A6.034,6.034,0,0,1,6.036,112.4Z" transform="translate(0 -5.361)" fill="#d80125"/>
    <path id="Tracé_6714" data-name="Tracé 6714" d="M72.721,336.549a.606.606,0,0,1-.428-.178.531.531,0,0,1-.073-.09.448.448,0,0,1-.057-.106.476.476,0,0,1-.033-.112.58.58,0,0,1,0-.235.546.546,0,0,1,.033-.115.493.493,0,0,1,.057-.1.533.533,0,0,1,.073-.09.61.61,0,0,1,.546-.166.476.476,0,0,1,.112.033.514.514,0,0,1,.106.057.43.43,0,0,1,.09.077.551.551,0,0,1,.077.09.686.686,0,0,1,.057.1.819.819,0,0,1,.033.115.52.52,0,0,1,.012.118.39.39,0,0,1-.012.117.68.68,0,0,1-.033.112.591.591,0,0,1-.057.106.546.546,0,0,1-.077.09.432.432,0,0,1-.09.077.514.514,0,0,1-.106.057.474.474,0,0,1-.112.033.519.519,0,0,1-.118.009Z" transform="translate(-50.354 -234.137)" fill="#140727"/>
    <path id="Tracé_6715" data-name="Tracé 6715" d="M75.8,142.32a.606.606,0,0,1-.5-.694h0a.606.606,0,0,1,.694-.5h0a.6.6,0,0,1,.5.688h0a.6.6,0,0,1-.594.51h0a.487.487,0,0,1-.1,0Zm154.839-.583a.6.6,0,0,1,.5-.694h0a.608.608,0,0,1,.694.5h0a.6.6,0,0,1-.5.688h0a.49.49,0,0,1-.093.009h0A.6.6,0,0,1,230.637,141.738ZM78.574,130.3a.6.6,0,0,1-.386-.761h0a.6.6,0,0,1,.761-.386h0a.6.6,0,0,1,.386.761h0a.6.6,0,0,1-.573.417h0A.591.591,0,0,1,78.574,130.3Zm149.2-.463a.6.6,0,0,1,.386-.761h0a.6.6,0,0,1,.761.386h0a.6.6,0,0,1-.386.761h0a.578.578,0,0,1-.187.03h0a.6.6,0,0,1-.574-.414ZM83.212,118.865a.6.6,0,0,1-.262-.812h0a.6.6,0,0,1,.812-.265h0a.608.608,0,0,1,.262.815h0a.6.6,0,0,1-.54.329h0a.594.594,0,0,1-.272-.066Zm139.867-.323a.608.608,0,0,1,.262-.815h0a.6.6,0,0,1,.812.262h0a.6.6,0,0,1-.262.812h0a.594.594,0,0,1-.275.066h0a.606.606,0,0,1-.537-.326ZM89.588,108.3a.6.6,0,0,1-.133-.842h0a.6.6,0,0,1,.849-.133h0a.6.6,0,0,1,.133.842h0a.6.6,0,0,1-.489.248h0a.6.6,0,0,1-.361-.116Zm127.08-.184a.6.6,0,0,1,.133-.842h0a.6.6,0,0,1,.849.133h0a.6.6,0,0,1-.133.842h0a.607.607,0,0,1-.356.118h0a.607.607,0,0,1-.494-.252ZM97.534,98.856a.6.6,0,0,1,0-.854h0a.6.6,0,0,1,.854,0h0a.6.6,0,0,1,0,.854h0a.605.605,0,0,1-.428.175h0a.6.6,0,0,1-.427-.173Zm111.175-.042a.6.6,0,0,1,0-.854h0a.6.6,0,0,1,.854,0h0a.6.6,0,0,1,0,.854h0a.593.593,0,0,1-.425.175h0a.6.6,0,0,1-.425-.175ZM106.846,90.771a.606.606,0,0,1,.133-.849h0a.606.606,0,0,1,.849.133h0a.6.6,0,0,1-.133.842h0a.606.606,0,0,1-.356.118h0a.612.612,0,0,1-.492-.244Zm92.549.1a.606.606,0,0,1-.133-.849h0a.6.6,0,0,1,.842-.133h0a.6.6,0,0,1,.133.842h0a.6.6,0,0,1-.489.251h0a.623.623,0,0,1-.353-.115Zm-82.085-6.636a.6.6,0,0,1,.262-.812h0a.606.606,0,0,1,.812.262h0a.608.608,0,0,1-.262.815h0a.65.65,0,0,1-.275.063h0a.6.6,0,0,1-.537-.329Zm71.646.235a.606.606,0,0,1-.262-.812h0a.6.6,0,0,1,.812-.265h0a.6.6,0,0,1,.262.812h0a.6.6,0,0,1-.54.329h0a.631.631,0,0,1-.27-.064Zm-60.3-5.049a.6.6,0,0,1,.386-.761h0a.6.6,0,0,1,.761.386h0a.6.6,0,0,1-.386.761h0a.564.564,0,0,1-.187.03h0a.6.6,0,0,1-.575-.417Zm48.981.365h0a.6.6,0,0,1-.386-.761h0a.6.6,0,0,1,.761-.386h0a.6.6,0,0,1,.386.761h0a.6.6,0,0,1-.573.417h0a.669.669,0,0,1-.187-.032Zm-37.006-3.332a.6.6,0,0,1,.5-.694h0a.606.606,0,0,1,.694.5h0a.6.6,0,0,1-.5.694h0a.523.523,0,0,1-.1.009h0a.6.6,0,0,1-.6-.511Zm25.1.489a.6.6,0,0,1-.5-.688h0a.606.606,0,0,1,.694-.5h0a.6.6,0,0,1,.5.694h0a.6.6,0,0,1-.595.51h0a.491.491,0,0,1-.1-.013ZM152.926,75.4a.6.6,0,0,1,.6-.6h0a.6.6,0,0,1,.6.6h0a.606.606,0,0,1-.6.6h0a.6.6,0,0,1-.6-.606Z" transform="translate(-52.565 -52.219)" fill="#140727"/>
    <path id="Tracé_6716" data-name="Tracé 6716" d="M593.821,336.543a.608.608,0,0,1-.425-.175.717.717,0,0,1-.077-.093.575.575,0,0,1-.054-.106.7.7,0,0,1-.036-.112.774.774,0,0,1-.012-.118.611.611,0,0,1,.178-.425.6.6,0,0,1,.54-.166.5.5,0,0,1,.115.033.424.424,0,0,1,.1.057.446.446,0,0,1,.093.077.611.611,0,0,1,.178.425.774.774,0,0,1-.012.118.693.693,0,0,1-.036.112.581.581,0,0,1-.054.106,1.135,1.135,0,0,1-.077.093.546.546,0,0,1-.093.073.424.424,0,0,1-.1.057.661.661,0,0,1-.231.046Z" transform="translate(-414.188 -234.134)" fill="#140727"/>
  </g>
</svg>
