<svg xmlns="http://www.w3.org/2000/svg" width="205.271" height="177.405" viewBox="0 0 205.271 177.405">
  <g id="Graphiques_4couleurs" transform="translate(-0.278 -1.34)">
    <path id="Tracé_6880" data-name="Tracé 6880" d="M35.076,191.292a6.109,6.109,0,0,1-4.313-1.771A102.668,102.668,0,0,1,68.5,19.8a6.135,6.135,0,1,1,4.114,11.56A90.385,90.385,0,0,0,39.393,180.792a6.134,6.134,0,0,1-4.313,10.5Z" transform="translate(0 -12.547)" fill="#d80125"/>
    <path id="Tracé_6881" data-name="Tracé 6881" d="M385.273,38.133a6.117,6.117,0,0,1-4.086-1.561A90.214,90.214,0,0,0,321,13.611a6.135,6.135,0,1,1,0-12.27,102.466,102.466,0,0,1,68.366,26.083,6.134,6.134,0,0,1-4.089,10.706Z" transform="translate(-218.086)" fill="#f09000"/>
    <path id="Tracé_6882" data-name="Tracé 6882" d="M605.778,218.057a6.133,6.133,0,0,1-6.135-6.135,90.289,90.289,0,0,0-12.35-45.633,6.136,6.136,0,1,1,10.586-6.206,102.577,102.577,0,0,1,14.034,51.838A6.133,6.133,0,0,1,605.778,218.057Z" transform="translate(-406.364 -107.944)" fill="#fcef21"/>
    <path id="Tracé_6883" data-name="Tracé 6883" d="M542.133,446.165a6.134,6.134,0,0,1-4.313-10.5,90.136,90.136,0,0,0,24.525-43.824,6.135,6.135,0,1,1,11.954,2.763,102.375,102.375,0,0,1-27.853,49.783,6.122,6.122,0,0,1-4.312,1.775Z" transform="translate(-371.388 -267.419)" fill="#00cb06"/>
    <path id="Tracé_6884" data-name="Tracé 6884" d="M512.874,514.083a.4.4,0,0,1-.119-.012c-.04-.012-.077-.022-.113-.034a1.188,1.188,0,0,1-.107-.058.664.664,0,0,1-.169-.169.7.7,0,0,1-.055-.107.493.493,0,0,1-.037-.113.534.534,0,0,1-.012-.119.629.629,0,0,1,.181-.436.778.778,0,0,1,.092-.077.714.714,0,0,1,.107-.055.479.479,0,0,1,.113-.034.526.526,0,0,1,.24,0,.5.5,0,0,1,.116.034.679.679,0,0,1,.1.055,1.194,1.194,0,0,1,.095.077.626.626,0,0,1,.178.436.4.4,0,0,1-.012.119.481.481,0,0,1-.034.113.7.7,0,0,1-.055.107.768.768,0,0,1-.077.092.616.616,0,0,1-.436.181Z" transform="translate(-354.933 -354.605)" fill="#140727"/>
    <path id="Tracé_6885" data-name="Tracé 6885" d="M219.283,201.9a.616.616,0,0,1-.132-.859h0a.616.616,0,0,1,.859-.129h0a.609.609,0,0,1,.129.856h0a.608.608,0,0,1-.494.252h0a.609.609,0,0,1-.362-.12Zm-126.358-.209a.616.616,0,0,1,.132-.859h0a.616.616,0,0,1,.856.132h0a.616.616,0,0,1-.129.859h0a.622.622,0,0,1-.365.116h0a.616.616,0,0,1-.494-.248Zm132.937-10.2a.616.616,0,0,1-.264-.828h0a.616.616,0,0,1,.825-.264h0a.616.616,0,0,1,.264.828h0a.616.616,0,0,1-.546.331h0a.626.626,0,0,1-.277-.067Zm-139.479-.353a.616.616,0,0,1,.267-.825h0a.616.616,0,0,1,.825.264h0a.611.611,0,0,1-.264.825h0a.584.584,0,0,1-.282.071h0a.616.616,0,0,1-.546-.334Zm144.34-10.963a.616.616,0,0,1-.39-.77h0a.616.616,0,0,1,.776-.393h0a.616.616,0,0,1,.39.776h0a.616.616,0,0,1-.583.424h0a.625.625,0,0,1-.192-.037Zm-149.135-.484h0a.61.61,0,0,1,.39-.77h0a.611.611,0,0,1,.77.393h0a.609.609,0,0,1-.39.77h0a.6.6,0,0,1-.19.031h0a.608.608,0,0,1-.583-.424ZM233.742,168.24a.612.612,0,0,1-.509-.7h0a.616.616,0,0,1,.7-.509h0a.616.616,0,0,1,.509.706h0a.616.616,0,0,1-.6.515h0a.509.509,0,0,1-.1-.009Zm-155.083-.608h0a.609.609,0,0,1,.509-.7h0a.616.616,0,0,1,.7.509h0a.616.616,0,0,1-.509.7h0c-.034,0-.068.006-.1.006h0a.61.61,0,0,1-.6-.515Zm156.184-11.657a.616.616,0,0,1-.616-.616h0a.616.616,0,0,1,.616-.611h0a.609.609,0,0,1,.611.616h0a.616.616,0,0,1-.616.611ZM77.66,155.26h0a.616.616,0,0,1,.616-.616h0a.616.616,0,0,1,.616.611h0a.616.616,0,0,1-.611.616h0A.616.616,0,0,1,77.66,155.26Zm155.672-12.083a.616.616,0,0,1,.512-.7h0a.612.612,0,0,1,.7.512h0a.616.616,0,0,1-.512.7h0c-.031,0-.062.006-.092.006h0a.616.616,0,0,1-.608-.521ZM79.1,143.585a.616.616,0,0,1-.512-.7h0a.616.616,0,0,1,.7-.512h0a.616.616,0,0,1,.512.7h0a.616.616,0,0,1-.6.521h0A.324.324,0,0,1,79.1,143.585Zm151.427-12.3a.616.616,0,0,1,.4-.77h0a.612.612,0,0,1,.77.4h0a.616.616,0,0,1-.4.77h0a.674.674,0,0,1-.187.028h0A.616.616,0,0,1,230.532,131.288Zm-148.682.3a.616.616,0,0,1-.4-.77h0a.616.616,0,0,1,.77-.4h0a.616.616,0,0,1,.4.77h0a.61.61,0,0,1-.583.424h0a.693.693,0,0,1-.187-.028Zm144.04-11.6a.609.609,0,0,1,.27-.822h0a.616.616,0,0,1,.825.27h0a.616.616,0,0,1-.27.825h0a.638.638,0,0,1-.276.065h0a.616.616,0,0,1-.551-.337Zm-139.438.182a.616.616,0,0,1-.267-.825h0a.616.616,0,0,1,.825-.267h0a.616.616,0,0,1,.267.825h0a.612.612,0,0,1-.546.334h0A.6.6,0,0,1,86.452,120.165Zm133.071-10.61a.611.611,0,0,1,.138-.856h0a.616.616,0,0,1,.856.135h0a.616.616,0,0,1-.138.859h0a.616.616,0,0,1-.359.116h0a.616.616,0,0,1-.5-.255ZM92.8,109.616a.61.61,0,0,1-.138-.856h0a.616.616,0,0,1,.859-.135h0a.616.616,0,0,1,.135.856h0a.616.616,0,0,1-.5.255h0a.6.6,0,0,1-.359-.119Zm118.81-9.368h0a.611.611,0,0,1,0-.865h0a.616.616,0,0,1,.868,0h0a.612.612,0,0,1,0,.868h0a.608.608,0,0,1-.433.178h0a.605.605,0,0,1-.436-.181Zm-110.9-.062a.616.616,0,0,1,0-.868h0a.611.611,0,0,1,.865,0h0a.609.609,0,0,1,0,.868h0a.616.616,0,0,1-.436.181h0a.612.612,0,0,1-.433-.181Zm101.628-7.893a.616.616,0,0,1-.136-.857h0a.616.616,0,0,1,.859-.132h0a.61.61,0,0,1,.132.856h0a.608.608,0,0,1-.494.252h0a.606.606,0,0,1-.361-.12ZM110,92.1a.616.616,0,0,1,.135-.856h0a.616.616,0,0,1,.859.135h0a.616.616,0,0,1-.135.856h0a.616.616,0,0,1-.362.119h0a.621.621,0,0,1-.5-.255Zm81.943-6.218h0a.612.612,0,0,1-.264-.825h0a.608.608,0,0,1,.825-.267h0a.611.611,0,0,1,.264.825h0a.612.612,0,0,1-.546.334h0a.616.616,0,0,1-.28-.069Zm-71.505-.314a.616.616,0,0,1,.266-.825h0a.616.616,0,0,1,.825.267h0a.609.609,0,0,1-.266.825h0a.6.6,0,0,1-.279.068h0A.616.616,0,0,1,120.437,85.572Zm60.23-4.383a.616.616,0,0,1-.393-.77h0a.611.611,0,0,1,.77-.393h0a.611.611,0,0,1,.393.77h0a.612.612,0,0,1-.583.424h0a.6.6,0,0,1-.187-.031Zm-48.885-.427a.616.616,0,0,1,.4-.77h0a.61.61,0,0,1,.77.393h0a.616.616,0,0,1-.393.776h0a.663.663,0,0,1-.19.028h0a.616.616,0,0,1-.585-.427Zm37.01-2.429a.612.612,0,0,1-.509-.7h0a.611.611,0,0,1,.7-.509h0a.616.616,0,0,1,.512.7h0a.616.616,0,0,1-.608.515h0a.512.512,0,0,1-.1-.006Zm-25.06-.528a.616.616,0,0,1,.512-.7h0a.611.611,0,0,1,.7.509h0a.616.616,0,0,1-.509.7h0c-.034,0-.065.006-.095.006h0A.616.616,0,0,1,143.732,77.8Zm12.881-.43a.616.616,0,0,1-.616-.616h0a.612.612,0,0,1,.616-.616h0a.616.616,0,0,1,.616.616h0a.616.616,0,0,1-.616.616Z" transform="translate(-53.648 -51.86)" fill="#140727"/>
    <path id="Tracé_6886" data-name="Tracé 6886" d="M154.094,514.084a.754.754,0,0,1-.119-.012.74.74,0,0,1-.116-.037.568.568,0,0,1-.1-.055.578.578,0,0,1-.095-.077.762.762,0,0,1-.077-.092.708.708,0,0,1-.055-.107.484.484,0,0,1-.034-.113.528.528,0,0,1-.012-.119.4.4,0,0,1,.012-.119.508.508,0,0,1,.034-.116.682.682,0,0,1,.055-.1,1.18,1.18,0,0,1,.077-.095.81.81,0,0,1,.095-.077.56.56,0,0,1,.1-.055.5.5,0,0,1,.116-.034.621.621,0,0,1,.353.034.707.707,0,0,1,.107.055.771.771,0,0,1,.092.077.751.751,0,0,1,.077.095.68.68,0,0,1,.055.1.736.736,0,0,1,.037.116.589.589,0,0,1,0,.24.7.7,0,0,1-.037.113.71.71,0,0,1-.055.107.661.661,0,0,1-.169.169.707.707,0,0,1-.107.056.828.828,0,0,1-.113.037A.788.788,0,0,1,154.094,514.084Z" transform="translate(-106.211 -354.606)" fill="#140727"/>
  </g>
</svg>
