<svg xmlns="http://www.w3.org/2000/svg" xmlns:xlink="http://www.w3.org/1999/xlink" width="217.94" height="79.245" viewBox="0 0 217.94 79.245">
  <defs>
    <clipPath id="clip-path">
      <rect id="Rectangle_2363" data-name="Rectangle 2363" width="217.94" height="79.245" fill="none"/>
    </clipPath>
  </defs>
  <g id="Groupe_1536" data-name="Groupe 1536" clip-path="url(#clip-path)">
    <path id="Tracé_6931" data-name="Tracé 6931" d="M61.916,0H17.329A17.329,17.329,0,0,0,0,17.329V61.916A17.329,17.329,0,0,0,17.329,79.245H61.916A17.329,17.329,0,0,0,79.245,61.916V17.329A17.329,17.329,0,0,0,61.916,0m68.775,40.456a11.581,11.581,0,0,1,2.414.257,13,13,0,0,1,2.055.6l.721-5.147a11.669,11.669,0,0,0-2.865-.993,15.749,15.749,0,0,0-3.363-.361,14.314,14.314,0,0,0-5.033.835A10.56,10.56,0,0,0,120.851,38a10.113,10.113,0,0,0-2.347,3.635,13.964,13.964,0,0,0,0,9.387,10.092,10.092,0,0,0,2.347,3.635A10.542,10.542,0,0,0,124.62,57a14.314,14.314,0,0,0,5.033.835,15.749,15.749,0,0,0,3.363-.361,11.669,11.669,0,0,0,2.865-.993l-.721-5.147a12.866,12.866,0,0,1-2.055.6,11.5,11.5,0,0,1-2.414.257,5.6,5.6,0,0,1-4.333-1.569,6.1,6.1,0,0,1-1.446-4.3,6.1,6.1,0,0,1,1.446-4.3,5.6,5.6,0,0,1,4.333-1.569m-18.056,1.986a12.912,12.912,0,0,0-2.888-1.986q-1.67-.856-3.566-1.625-1.309-.542-2.168-.948a5.939,5.939,0,0,1-1.33-.812,2.251,2.251,0,0,1-.656-.858,2.933,2.933,0,0,1-.179-1.083,2.01,2.01,0,0,1,1.014-1.917,5.523,5.523,0,0,1,2.687-.564,15.68,15.68,0,0,1,3.859.474,18.033,18.033,0,0,1,3.453,1.241l1.264-5.553a15.908,15.908,0,0,0-3.972-1.467,20.984,20.984,0,0,0-4.92-.564q-5.055,0-7.922,2.3a8.06,8.06,0,0,0-2.866,6.679,7.652,7.652,0,0,0,2.031,5.484,17.233,17.233,0,0,0,6.455,3.814,13.28,13.28,0,0,1,3.858,1.965,2.7,2.7,0,0,1,1.062,2.052,2.425,2.425,0,0,1-1.22,2.281,6.189,6.189,0,0,1-3.113.7,15.581,15.581,0,0,1-4.288-.564,21.6,21.6,0,0,1-3.566-1.332L94.174,55.8a20.172,20.172,0,0,0,4.6,1.58,23.215,23.215,0,0,0,4.965.543,14.507,14.507,0,0,0,4.83-.746,11.029,11.029,0,0,0,3.611-2.031,8.731,8.731,0,0,0,2.278-3.023,8.894,8.894,0,0,0,.79-3.725,7.683,7.683,0,0,0-.7-3.384,8.575,8.575,0,0,0-1.92-2.574m39.45-7.357a5.352,5.352,0,0,0-3.429,1.038,6.093,6.093,0,0,0-1.941,2.845v-3.7h-7V57.382h7.222V43.662q1.758-2.167,6.048-2.168h.856l.181-6.137a6.687,6.687,0,0,0-.879-.2,6.976,6.976,0,0,0-1.062-.069m4.739,22.3h7.222V35.265h-7.222Zm3.611-32.633a3.882,3.882,0,0,0-2.933,1.172,4.26,4.26,0,0,0,0,5.779,4.256,4.256,0,0,0,5.867,0,4.26,4.26,0,0,0,0-5.779,3.884,3.884,0,0,0-2.934-1.172m56.828,16.836A10.971,10.971,0,0,0,215.345,38a8.645,8.645,0,0,0-3-2.347,9.066,9.066,0,0,0-3.927-.835,8.071,8.071,0,0,0-3.363.611,7.742,7.742,0,0,0-2.279,1.557V25.515h-7.222V55.623a20.055,20.055,0,0,0,4.491,1.625,22.276,22.276,0,0,0,5.168.587,15.477,15.477,0,0,0,5.6-.927,11.257,11.257,0,0,0,3.972-2.505,10.176,10.176,0,0,0,2.37-3.723,13.018,13.018,0,0,0,.79-4.538,14.635,14.635,0,0,0-.677-4.558M210.4,48.671a6.068,6.068,0,0,1-.948,1.987,4.372,4.372,0,0,1-1.67,1.353,5.58,5.58,0,0,1-2.437.5,7.119,7.119,0,0,1-1.4-.137,5.272,5.272,0,0,1-1.174-.361V41.54a5.559,5.559,0,0,1,3.566-1.219,3.7,3.7,0,0,1,3.318,1.6,7.717,7.717,0,0,1,1.061,4.312,9,9,0,0,1-.316,2.436M189.165,38a8.653,8.653,0,0,0-3-2.347,9.074,9.074,0,0,0-3.927-.835,8.081,8.081,0,0,0-3.364.611,7.735,7.735,0,0,0-2.278,1.557V25.515h-7.223V55.623a20.078,20.078,0,0,0,4.491,1.625,22.291,22.291,0,0,0,5.168.587,15.472,15.472,0,0,0,5.6-.927A11.235,11.235,0,0,0,188.6,54.4a10.179,10.179,0,0,0,2.371-3.723,13.047,13.047,0,0,0,.79-4.538,14.634,14.634,0,0,0-.677-4.558,10.949,10.949,0,0,0-1.92-3.59m-4.941,10.675a6.094,6.094,0,0,1-.949,1.987,4.368,4.368,0,0,1-1.669,1.353,5.584,5.584,0,0,1-2.437.5,7.11,7.11,0,0,1-1.4-.137,5.252,5.252,0,0,1-1.174-.361V41.54a5.559,5.559,0,0,1,3.566-1.219,3.694,3.694,0,0,1,3.316,1.6,7.707,7.707,0,0,1,1.062,4.312,9.05,9.05,0,0,1-.316,2.436" transform="translate(0 0)" fill="#140727"/>
    <path id="Tracé_6932" data-name="Tracé 6932" d="M50.909,13.492a1.881,1.881,0,0,0-1.881,1.881v25.79a1.881,1.881,0,1,0,3.761,0V15.373a1.881,1.881,0,0,0-1.881-1.881m6.909,5.373a1.881,1.881,0,0,0-1.881,1.881V35.789a1.881,1.881,0,0,0,3.761,0V20.745a1.881,1.881,0,0,0-1.881-1.881m6.906,3.8a1.881,1.881,0,0,0-1.881,1.881v7.439a1.881,1.881,0,1,0,3.761,0V24.548a1.88,1.88,0,0,0-1.881-1.881m-27.169-3.8a1.881,1.881,0,0,0-1.881,1.881V51.272a1.881,1.881,0,0,0,3.761,0V20.745a1.881,1.881,0,0,0-1.881-1.881m6.906,3.8a1.881,1.881,0,0,0-1.881,1.881v7.439a1.881,1.881,0,0,0,3.761,0V24.548a1.881,1.881,0,0,0-1.881-1.881M24.079,29.354A1.881,1.881,0,0,0,22.2,31.235v25.79a1.881,1.881,0,0,0,3.761,0V31.235a1.88,1.88,0,0,0-1.881-1.881m-6.906,5.373a1.881,1.881,0,0,0-1.881,1.881V51.652a1.881,1.881,0,0,0,3.761,0V36.607a1.881,1.881,0,0,0-1.881-1.881m-6.909,3.8a1.881,1.881,0,0,0-1.881,1.881V47.85a1.881,1.881,0,0,0,3.761,0V40.409a1.881,1.881,0,0,0-1.881-1.881m20.263,0a1.881,1.881,0,0,0-1.881,1.881V47.85a1.881,1.881,0,0,0,3.761,0V40.409a1.881,1.881,0,0,0-1.881-1.881" transform="translate(2.128 3.424)" fill="#f5ff63"/>
  </g>
</svg>
