<svg id="Logo_final" data-name="Logo final" xmlns="http://www.w3.org/2000/svg" width="173.82" height="63.2" viewBox="0 0 173.82 63.2">
  <rect id="Rectangle_2037" data-name="Rectangle 2037" width="63.2" height="63.2" rx="13.82" fill="#f5ff63"/>
  <line id="Ligne_65" data-name="Ligne 65" y2="20.57" transform="translate(42.3 14.99)" fill="none" stroke="#140727" stroke-linecap="round" stroke-miterlimit="10" stroke-width="3"/>
  <line id="Ligne_66" data-name="Ligne 66" y2="12" transform="translate(47.81 19.28)" fill="none" stroke="#140727" stroke-linecap="round" stroke-miterlimit="10" stroke-width="3"/>
  <line id="Ligne_67" data-name="Ligne 67" y2="5.93" transform="translate(53.32 22.31)" fill="none" stroke="#140727" stroke-linecap="round" stroke-miterlimit="10" stroke-width="3"/>
  <line id="Ligne_68" data-name="Ligne 68" y2="24.34" transform="translate(31.65 19.28)" fill="none" stroke="#140727" stroke-linecap="round" stroke-miterlimit="10" stroke-width="3"/>
  <line id="Ligne_69" data-name="Ligne 69" y2="5.93" transform="translate(37.16 22.31)" fill="none" stroke="#140727" stroke-linecap="round" stroke-miterlimit="10" stroke-width="3"/>
  <line id="Ligne_70" data-name="Ligne 70" y1="20.57" transform="translate(20.9 27.64)" fill="none" stroke="#140727" stroke-linecap="round" stroke-miterlimit="10" stroke-width="3"/>
  <line id="Ligne_71" data-name="Ligne 71" y1="12" transform="translate(15.39 31.93)" fill="none" stroke="#140727" stroke-linecap="round" stroke-miterlimit="10" stroke-width="3"/>
  <line id="Ligne_72" data-name="Ligne 72" y1="5.93" transform="translate(9.88 34.96)" fill="none" stroke="#140727" stroke-linecap="round" stroke-miterlimit="10" stroke-width="3"/>
  <line id="Ligne_73" data-name="Ligne 73" y1="5.93" transform="translate(26.05 34.96)" fill="none" stroke="#140727" stroke-linecap="round" stroke-miterlimit="10" stroke-width="3"/>
  <path id="Tracé_6690" data-name="Tracé 6690" d="M91.92,38.6a7.066,7.066,0,0,1-.63,2.97,6.993,6.993,0,0,1-1.82,2.41,8.927,8.927,0,0,1-2.88,1.62,11.49,11.49,0,0,1-3.85.59,18.4,18.4,0,0,1-3.96-.43,16.368,16.368,0,0,1-3.67-1.26L76.3,40a17.363,17.363,0,0,0,2.84,1.06,12.512,12.512,0,0,0,3.42.45,4.921,4.921,0,0,0,2.48-.56,1.931,1.931,0,0,0,.97-1.82,2.139,2.139,0,0,0-.85-1.64,10.753,10.753,0,0,0-3.08-1.57,13.811,13.811,0,0,1-5.15-3.04,6.1,6.1,0,0,1-1.62-4.37,6.427,6.427,0,0,1,2.29-5.33,9.847,9.847,0,0,1,6.32-1.84,16.64,16.64,0,0,1,3.92.45,12.67,12.67,0,0,1,3.17,1.17L90,27.39a14.173,14.173,0,0,0-2.75-.99,12.614,12.614,0,0,0-3.08-.38,4.389,4.389,0,0,0-2.14.45A1.606,1.606,0,0,0,81.22,28a2.42,2.42,0,0,0,.14.86,1.8,1.8,0,0,0,.52.68,4.9,4.9,0,0,0,1.06.65c.46.22,1.03.47,1.73.76,1.01.41,1.96.84,2.84,1.3a10.137,10.137,0,0,1,2.3,1.58,6.75,6.75,0,0,1,1.53,2.05,6.17,6.17,0,0,1,.56,2.7Z" fill="#f5ff63"/>
  <path id="Tracé_6691" data-name="Tracé 6691" d="M103.41,27.77a12.573,12.573,0,0,1,2.68.29,9.446,9.446,0,0,1,2.29.79l-.58,4.1a10.9,10.9,0,0,0-1.64-.48,8.983,8.983,0,0,0-1.93-.21,4.492,4.492,0,0,0-3.46,1.25,4.857,4.857,0,0,0-1.15,3.43,4.857,4.857,0,0,0,1.15,3.43,4.492,4.492,0,0,0,3.46,1.25,8.983,8.983,0,0,0,1.93-.21,10.9,10.9,0,0,0,1.64-.48l.58,4.1a9.039,9.039,0,0,1-2.29.79,12.643,12.643,0,0,1-2.68.29,11.205,11.205,0,0,1-4.01-.67,8.442,8.442,0,0,1-3.01-1.87,7.928,7.928,0,0,1-1.87-2.9,11.085,11.085,0,0,1,0-7.48,8.145,8.145,0,0,1,1.87-2.9,8.442,8.442,0,0,1,3.01-1.87,11.509,11.509,0,0,1,4.01-.67Z" fill="#f5ff63"/>
  <path id="Tracé_6692" data-name="Tracé 6692" d="M122.7,33.09h-.68q-3.42,0-4.82,1.73V45.76h-5.76V28.12h5.58v2.95a4.787,4.787,0,0,1,1.55-2.27,4.3,4.3,0,0,1,2.74-.83,6.585,6.585,0,0,1,.85.05,6.364,6.364,0,0,1,.7.16l-.14,4.9Z" fill="#f5ff63"/>
  <path id="Tracé_6693" data-name="Tracé 6693" d="M124.72,22.98a3.184,3.184,0,0,1,.9-2.3,3.118,3.118,0,0,1,2.34-.94,3.081,3.081,0,0,1,2.34.94,3.389,3.389,0,0,1,0,4.6,3.118,3.118,0,0,1-2.34.94,3.081,3.081,0,0,1-2.34-.94,3.184,3.184,0,0,1-.9-2.3Zm.36,22.79V28.13h5.76V45.77h-5.76Z" fill="#f5ff63"/>
  <path id="Tracé_6694" data-name="Tracé 6694" d="M135.09,20.35h5.76v9.14a6.1,6.1,0,0,1,1.82-1.24,6.515,6.515,0,0,1,2.68-.49,7.112,7.112,0,0,1,3.13.67,6.816,6.816,0,0,1,2.39,1.87,8.706,8.706,0,0,1,1.53,2.86,11.682,11.682,0,0,1,.54,3.64,10.2,10.2,0,0,1-.63,3.62,8.112,8.112,0,0,1-1.89,2.97,9,9,0,0,1-3.17,2,12.367,12.367,0,0,1-4.46.74,17.815,17.815,0,0,1-4.12-.47,15.473,15.473,0,0,1-3.58-1.3V20.35Zm8.6,11.81a4.405,4.405,0,0,0-2.84.97v8.35a4.174,4.174,0,0,0,.94.29,5.827,5.827,0,0,0,1.12.11,4.365,4.365,0,0,0,1.94-.4,3.383,3.383,0,0,0,1.33-1.08,5.037,5.037,0,0,0,.76-1.58,7.11,7.11,0,0,0,.25-1.94,6.1,6.1,0,0,0-.85-3.44,2.955,2.955,0,0,0-2.65-1.28Z" fill="#f5ff63"/>
  <path id="Tracé_6695" data-name="Tracé 6695" d="M155.97,20.35h5.76v9.14a6.1,6.1,0,0,1,1.82-1.24,6.515,6.515,0,0,1,2.68-.49,7.112,7.112,0,0,1,3.13.67,6.816,6.816,0,0,1,2.39,1.87,8.706,8.706,0,0,1,1.53,2.86,11.682,11.682,0,0,1,.54,3.64,10.2,10.2,0,0,1-.63,3.62,8.112,8.112,0,0,1-1.89,2.97,9,9,0,0,1-3.17,2,12.367,12.367,0,0,1-4.46.74,17.815,17.815,0,0,1-4.12-.47,15.473,15.473,0,0,1-3.58-1.3V20.35Zm8.6,11.81a4.405,4.405,0,0,0-2.84.97v8.35a4.174,4.174,0,0,0,.94.29,5.827,5.827,0,0,0,1.12.11,4.365,4.365,0,0,0,1.94-.4,3.383,3.383,0,0,0,1.33-1.08,5.037,5.037,0,0,0,.76-1.58,7.11,7.11,0,0,0,.25-1.94,6.1,6.1,0,0,0-.85-3.44,2.955,2.955,0,0,0-2.65-1.28Z" fill="#f5ff63"/>
</svg>
